<svg width="20" height="20" viewBox="0 0 20 20" fill="none" xmlns="http://www.w3.org/2000/svg">
<g clip-path="url(#clip0_207_5790)">
<path d="M10.1711 5.67501L10.1878 5.6875H10.2086H16.875C17.1899 5.6875 17.492 5.81261 17.7147 6.03531C17.9374 6.25801 18.0625 6.56006 18.0625 6.875V15.6944C18.0621 15.9909 17.9442 16.275 17.7346 16.4846C17.525 16.6942 17.2409 16.8121 16.9444 16.8125H3.125C2.81006 16.8125 2.50801 16.6874 2.28531 16.4647C2.06261 16.242 1.9375 15.9399 1.9375 15.625V5C1.9375 4.68506 2.06261 4.38301 2.28531 4.16031C2.50801 3.93761 2.81006 3.8125 3.125 3.8125H7.29215C7.54857 3.81283 7.79799 3.89615 8.00312 4.05L8.00314 4.05001L10.1711 5.67501Z" fill="#8B8B9E" stroke="#8B8B9E" stroke-width="0.125"/>
</g>
<defs>
<clipPath id="clip0_207_5790">
<rect width="20" height="20" fill="white"/>
</clipPath>
</defs>
</svg>
