<svg width="20" height="20" viewBox="0 0 20 20" fill="none" xmlns="http://www.w3.org/2000/svg">
<g clip-path="url(#clip0_488_8814)">
<path d="M17.4754 3.2955C17.5055 3.18859 17.5066 3.07558 17.4785 2.96811C17.4505 2.86063 17.3943 2.76258 17.3157 2.68403C17.2372 2.60549 17.1391 2.5493 17.0317 2.52124C16.9242 2.49319 16.8112 2.49428 16.7043 2.52441L1.70427 7.07284C1.5818 7.1074 1.47281 7.17852 1.39185 7.27669C1.31089 7.37486 1.26182 7.4954 1.2512 7.6222C1.24059 7.749 1.26893 7.87603 1.33244 7.98629C1.39595 8.09655 1.4916 8.18481 1.60661 8.23925L8.29567 11.4064C8.4259 11.4682 8.53078 11.5731 8.59255 11.7033L11.7605 18.3916C11.815 18.5066 11.9032 18.6023 12.0135 18.6658C12.1237 18.7293 12.2508 18.7576 12.3776 18.747C12.5044 18.7364 12.6249 18.6873 12.7231 18.6064C12.8212 18.5254 12.8924 18.4164 12.9269 18.2939L17.4754 3.2955Z" stroke="#8B8B9E" stroke-width="1.5" stroke-linecap="round" stroke-linejoin="round"/>
<path d="M8.4707 11.5297L12.5004 7.5" stroke="#8B8B9E" stroke-width="1.5" stroke-linecap="round" stroke-linejoin="round"/>
</g>
<defs>
<clipPath id="clip0_488_8814">
<rect width="20" height="20" fill="white"/>
</clipPath>
</defs>
</svg>
