<svg width="20" height="20" viewBox="0 0 20 20" fill="none" xmlns="http://www.w3.org/2000/svg">
<g clip-path="url(#clip0_264_7245)">
<path d="M3.52734 17.9773C3.43631 18.0539 3.32531 18.1029 3.20739 18.1186C3.08947 18.1343 2.96952 18.116 2.86164 18.0659C2.75376 18.0157 2.66242 17.9359 2.59836 17.8356C2.5343 17.7354 2.50018 17.619 2.5 17.5V5C2.5 4.83424 2.56585 4.67527 2.68306 4.55806C2.80027 4.44085 2.95924 4.375 3.125 4.375H16.875C17.0408 4.375 17.1997 4.44085 17.3169 4.55806C17.4342 4.67527 17.5 4.83424 17.5 5V15C17.5 15.1658 17.4342 15.3247 17.3169 15.4419C17.1997 15.5592 17.0408 15.625 16.875 15.625H6.44531C6.29808 15.625 6.1556 15.6771 6.04297 15.7719L3.52734 17.9773Z" stroke="white" stroke-width="1.5" stroke-linecap="round" stroke-linejoin="round"/>
<path d="M10 10.9375C10.5178 10.9375 10.9375 10.5178 10.9375 10C10.9375 9.48223 10.5178 9.0625 10 9.0625C9.48223 9.0625 9.0625 9.48223 9.0625 10C9.0625 10.5178 9.48223 10.9375 10 10.9375Z" fill="white"/>
<path d="M6.5625 10.9375C7.08027 10.9375 7.5 10.5178 7.5 10C7.5 9.48223 7.08027 9.0625 6.5625 9.0625C6.04473 9.0625 5.625 9.48223 5.625 10C5.625 10.5178 6.04473 10.9375 6.5625 10.9375Z" fill="white"/>
<path d="M13.4375 10.9375C13.9553 10.9375 14.375 10.5178 14.375 10C14.375 9.48223 13.9553 9.0625 13.4375 9.0625C12.9197 9.0625 12.5 9.48223 12.5 10C12.5 10.5178 12.9197 10.9375 13.4375 10.9375Z" fill="white"/>
</g>
<defs>
<clipPath id="clip0_264_7245">
<rect width="20" height="20" fill="white"/>
</clipPath>
</defs>
</svg>
