<svg width="20" height="20" viewBox="0 0 20 20" fill="none" xmlns="http://www.w3.org/2000/svg">
<g clip-path="url(#clip0_390_8324)">
<path d="M10 6.25V10L13.125 11.875" stroke="white" stroke-width="1.5" stroke-linecap="round" stroke-linejoin="round"/>
<path d="M5.625 8.125H2.5V5" fill="white"/>
<path d="M5.625 8.125H2.5V5" stroke="white" stroke-width="1.5" stroke-linecap="round" stroke-linejoin="round"/>
<path d="M5.28125 15.0001C6.26404 15.9274 7.49832 16.5446 8.82987 16.7745C10.1614 17.0044 11.5312 16.8368 12.768 16.2927C14.0049 15.7486 15.054 14.852 15.7842 13.7151C16.5144 12.5781 16.8934 11.2512 16.8739 9.9001C16.8543 8.54899 16.437 7.23361 15.6741 6.11831C14.9112 5.00301 13.8366 4.13725 12.5845 3.6292C11.3324 3.12115 9.9583 2.99335 8.63397 3.26175C7.30964 3.53016 6.09377 4.18287 5.13828 5.13834C4.21875 6.06959 3.45937 6.94771 2.5 8.12506" stroke="white" stroke-width="1.5" stroke-linecap="round" stroke-linejoin="round"/>
</g>
<defs>
<clipPath id="clip0_390_8324">
<rect width="20" height="20" fill="white"/>
</clipPath>
</defs>
</svg>
