<svg width="20" height="20" viewBox="0 0 20 20" fill="none" xmlns="http://www.w3.org/2000/svg">
<g clip-path="url(#clip0_188_6193)">
<path d="M16.875 5.625H10.2086L8.04062 4C7.82468 3.83804 7.56212 3.75034 7.29219 3.75H3.125C2.79348 3.75 2.47554 3.8817 2.24112 4.11612C2.0067 4.35054 1.875 4.66848 1.875 5V15.625C1.875 15.9565 2.0067 16.2745 2.24112 16.5089C2.47554 16.7433 2.79348 16.875 3.125 16.875H16.9445C17.2575 16.8746 17.5575 16.7501 17.7788 16.5288C18.0001 16.3075 18.1246 16.0075 18.125 15.6945V6.875C18.125 6.54348 17.9933 6.22554 17.7589 5.99112C17.5245 5.7567 17.2065 5.625 16.875 5.625Z" fill="#9393A4"/>
</g>
<defs>
<clipPath id="clip0_188_6193">
<rect width="20" height="20" fill="white"/>
</clipPath>
</defs>
</svg>
