<svg width="20" height="20" viewBox="0 0 20 20" fill="none" xmlns="http://www.w3.org/2000/svg">
<g clip-path="url(#clip0_188_597)">
<path d="M17.5 6.875V15.6945C17.5 15.8419 17.4415 15.9831 17.3373 16.0873C17.2331 16.1915 17.0919 16.25 16.9445 16.25H3.125C2.95924 16.25 2.80027 16.1842 2.68306 16.0669C2.56585 15.9497 2.5 15.7908 2.5 15.625V5C2.5 4.83424 2.56585 4.67527 2.68306 4.55806C2.80027 4.44085 2.95924 4.375 3.125 4.375H7.29141C7.42664 4.375 7.55822 4.41886 7.66641 4.5L9.83359 6.125C9.94178 6.20614 10.0734 6.25 10.2086 6.25H16.875C17.0408 6.25 17.1997 6.31585 17.3169 6.43306C17.4342 6.55027 17.5 6.70924 17.5 6.875Z" stroke="#9393A4" stroke-width="1.5" stroke-linecap="round" stroke-linejoin="round"/>
<path d="M8.125 11.25H11.875" stroke="#9393A4" stroke-width="1.5" stroke-linecap="round" stroke-linejoin="round"/>
<path d="M10 9.375V13.125" stroke="#9393A4" stroke-width="1.5" stroke-linecap="round" stroke-linejoin="round"/>
</g>
<defs>
<clipPath id="clip0_188_597">
<rect width="20" height="20" fill="white"/>
</clipPath>
</defs>
</svg>
