<svg width="20" height="20" viewBox="0 0 20 20" fill="none" xmlns="http://www.w3.org/2000/svg">
<g clip-path="url(#clip0_624_6704)">
<path d="M17.4758 3.29532C17.506 3.18841 17.5071 3.0754 17.479 2.96792C17.451 2.86045 17.3948 2.76239 17.3162 2.68385C17.2377 2.60531 17.1396 2.54912 17.0321 2.52106C16.9247 2.493 16.8117 2.4941 16.7048 2.52422L1.70475 7.07266C1.58229 7.10722 1.4733 7.17834 1.39234 7.27651C1.31138 7.37468 1.26231 7.49522 1.25169 7.62202C1.24107 7.74882 1.26942 7.87584 1.33293 7.98611C1.39643 8.09637 1.49209 8.18462 1.6071 8.23907L8.29616 11.4063C8.42639 11.468 8.53127 11.5729 8.59304 11.7031L11.761 18.3914C11.8154 18.5064 11.9037 18.6021 12.014 18.6656C12.1242 18.7291 12.2512 18.7574 12.3781 18.7468C12.5049 18.7362 12.6254 18.6871 12.7236 18.6062C12.8217 18.5252 12.8928 18.4162 12.9274 18.2938L17.4758 3.29532Z" stroke="#9393A4" stroke-width="1.5" stroke-linecap="round" stroke-linejoin="round"/>
<path d="M8.47021 11.5297L12.4999 7.5" stroke="#9393A4" stroke-width="1.5" stroke-linecap="round" stroke-linejoin="round"/>
</g>
<defs>
<clipPath id="clip0_624_6704">
<rect width="20" height="20" fill="white"/>
</clipPath>
</defs>
</svg>
