<svg width="20" height="20" viewBox="0 0 20 20" fill="none" xmlns="http://www.w3.org/2000/svg">
<g clip-path="url(#clip0_420_8063)">
<path d="M17.4757 3.29532C17.5059 3.18841 17.5069 3.0754 17.4789 2.96792C17.4508 2.86045 17.3946 2.76239 17.3161 2.68385C17.2376 2.60531 17.1395 2.54912 17.032 2.52106C16.9246 2.493 16.8115 2.4941 16.7046 2.52422L1.70463 7.07266C1.58217 7.10722 1.47317 7.17834 1.39221 7.27651C1.31125 7.37468 1.26219 7.49522 1.25157 7.62202C1.24095 7.74882 1.26929 7.87584 1.3328 7.98611C1.39631 8.09637 1.49197 8.18462 1.60698 8.23907L8.29604 11.4063C8.42627 11.468 8.53115 11.5729 8.59291 11.7031L11.7609 18.3914C11.8153 18.5064 11.9036 18.6021 12.0138 18.6656C12.1241 18.7291 12.2511 18.7574 12.3779 18.7468C12.5047 18.7362 12.6253 18.6871 12.7234 18.6062C12.8216 18.5252 12.8927 18.4162 12.9273 18.2938L17.4757 3.29532Z" stroke="#DBDBE1" stroke-width="1.5" stroke-linecap="round" stroke-linejoin="round"/>
<path d="M8.47034 11.5297L12.5 7.5" stroke="#DBDBE1" stroke-width="1.5" stroke-linecap="round" stroke-linejoin="round"/>
</g>
<defs>
<clipPath id="clip0_420_8063">
<rect width="20" height="20" fill="white"/>
</clipPath>
</defs>
</svg>
