<svg width="36" height="36" viewBox="0 0 36 36" fill="none" xmlns="http://www.w3.org/2000/svg">
<path d="M12.2 23.14C11.9573 23.14 11.752 23.0653 11.584 22.916C11.416 22.7667 11.332 22.524 11.332 22.188C11.332 21.8333 11.416 21.586 11.584 21.446C11.752 21.306 11.9573 21.236 12.2 21.236C12.4427 21.236 12.648 21.306 12.816 21.446C12.984 21.586 13.068 21.8333 13.068 22.188C13.068 22.524 12.984 22.7667 12.816 22.916C12.648 23.0653 12.4427 23.14 12.2 23.14ZM17.8645 23.14C17.6219 23.14 17.4165 23.0653 17.2485 22.916C17.0805 22.7667 16.9965 22.524 16.9965 22.188C16.9965 21.8333 17.0805 21.586 17.2485 21.446C17.4165 21.306 17.6219 21.236 17.8645 21.236C18.1072 21.236 18.3125 21.306 18.4805 21.446C18.6485 21.586 18.7325 21.8333 18.7325 22.188C18.7325 22.524 18.6485 22.7667 18.4805 22.916C18.3125 23.0653 18.1072 23.14 17.8645 23.14ZM23.5291 23.14C23.2864 23.14 23.0811 23.0653 22.9131 22.916C22.7451 22.7667 22.6611 22.524 22.6611 22.188C22.6611 21.8333 22.7451 21.586 22.9131 21.446C23.0811 21.306 23.2864 21.236 23.5291 21.236C23.7717 21.236 23.9771 21.306 24.1451 21.446C24.3131 21.586 24.3971 21.8333 24.3971 22.188C24.3971 22.524 24.3131 22.7667 24.1451 22.916C23.9771 23.0653 23.7717 23.14 23.5291 23.14Z" fill="#333333"/>
</svg>
