<svg width="20" height="20" viewBox="0 0 20 20" fill="none" xmlns="http://www.w3.org/2000/svg">
<g clip-path="url(#clip0_467_902)">
<path d="M10 4.6875C10 4.2731 10.1646 3.87567 10.4576 3.58265C10.7507 3.28962 11.1481 3.125 11.5625 3.125C11.9769 3.125 12.3743 3.28962 12.6674 3.58265C12.9604 3.87567 13.125 4.2731 13.125 4.6875V9.0625" stroke="#9393A4" stroke-width="1.5" stroke-linecap="round" stroke-linejoin="round"/>
<path d="M6.875 5.9375V3.4375C6.875 3.0231 7.03962 2.62567 7.33265 2.33265C7.62567 2.03962 8.0231 1.875 8.4375 1.875C8.8519 1.875 9.24933 2.03962 9.54235 2.33265C9.83538 2.62567 10 3.0231 10 3.4375V8.75" stroke="#9393A4" stroke-width="1.5" stroke-linecap="round" stroke-linejoin="round"/>
<path d="M10 13.75C10 12.9212 10.3292 12.1263 10.9153 11.5403C11.5013 10.9542 12.2962 10.625 13.125 10.625V9.0625C13.125 8.6481 13.2896 8.25067 13.5826 7.95765C13.8757 7.66462 14.2731 7.5 14.6875 7.5C15.1019 7.5 15.4993 7.66462 15.7924 7.95765C16.0854 8.25067 16.25 8.6481 16.25 9.0625V11.875C16.25 13.5326 15.5915 15.1223 14.4194 16.2944C13.2473 17.4665 11.6576 18.125 10 18.125C8.3424 18.125 6.75269 17.4665 5.58058 16.2944C4.40848 15.1223 3.75 13.5326 3.75 11.875V5.9375C3.75 5.5231 3.91462 5.12567 4.20765 4.83265C4.50067 4.53962 4.8981 4.375 5.3125 4.375C5.7269 4.375 6.12433 4.53962 6.41735 4.83265C6.71038 5.12567 6.875 5.5231 6.875 5.9375V9.375" stroke="#9393A4" stroke-width="1.5" stroke-linecap="round" stroke-linejoin="round"/>
</g>
<defs>
<clipPath id="clip0_467_902">
<rect width="20" height="20" fill="white"/>
</clipPath>
</defs>
</svg>
