<svg width="16" height="16" viewBox="0 0 16 16" fill="none" xmlns="http://www.w3.org/2000/svg">
<g clip-path="url(#clip0_467_1623)">
<path fill-rule="evenodd" clip-rule="evenodd" d="M8.13518 1.96826C8.00845 1.96826 7.88834 2.02481 7.8076 2.12249L4.95888 5.56886H4.79343H2.6377C2.08541 5.56886 1.6377 6.01657 1.6377 6.56886V13.0313C1.6377 13.5836 2.08541 14.0313 2.6377 14.0313H4.3082V14.0317H11.3531C11.9339 14.0317 12.4521 13.6667 12.6478 13.1198L14.223 8.71509C14.3148 8.45843 14.3617 8.18788 14.3617 7.91531V7.2198C14.3617 6.46041 13.7461 5.8448 12.9867 5.8448H9.33123L10.0221 3.77947L9.6665 3.66051L10.0221 3.77947C10.3201 2.88885 9.6573 1.96826 8.71816 1.96826H8.13518ZM5.54343 13.2817H11.3531C11.6171 13.2817 11.8526 13.1158 11.9416 12.8672L13.5168 8.46252C13.5796 8.28692 13.6117 8.10181 13.6117 7.91531V7.2198C13.6117 6.87462 13.3319 6.5948 12.9867 6.5948H8.8798C8.58952 6.5948 8.38467 6.31026 8.47676 6.03497L9.31088 3.54154C9.4463 3.13671 9.14504 2.71826 8.71816 2.71826H8.28819L5.54343 6.03886V6.31886V13.2813V13.2817ZM2.6377 6.31886H4.79343V13.2813H2.6377C2.49962 13.2813 2.3877 13.1694 2.3877 13.0313V6.56886C2.3877 6.43079 2.49962 6.31886 2.6377 6.31886Z" fill="#9393A4"/>
</g>
<defs>
<clipPath id="clip0_467_1623">
<rect width="16" height="16" fill="white"/>
</clipPath>
</defs>
</svg>
