<svg width="16" height="16" viewBox="0 0 16 16" fill="none" xmlns="http://www.w3.org/2000/svg">
<g clip-path="url(#clip0_467_1627)">
<path fill-rule="evenodd" clip-rule="evenodd" d="M8.13518 14.0317C8.00845 14.0317 7.88834 13.9752 7.8076 13.8775L4.95888 10.4311H4.79343H2.6377C2.08541 10.4311 1.6377 9.98343 1.6377 9.43114V2.96872C1.6377 2.41643 2.08541 1.96872 2.6377 1.96872H4.3082V1.96828H11.3531C11.9339 1.96828 12.4521 2.3333 12.6478 2.88025L14.223 7.28491C14.3148 7.54157 14.3617 7.81212 14.3617 8.08469V8.7802C14.3617 9.53959 13.7461 10.1552 12.9867 10.1552H9.33123L10.0221 12.2205L9.6665 12.3395L10.0221 12.2205C10.3201 13.1112 9.6573 14.0317 8.71816 14.0317H8.13518ZM5.54343 2.71828H11.3531C11.6171 2.71828 11.8526 2.8842 11.9416 3.13281L13.5168 7.53748C13.5796 7.71308 13.6117 7.89819 13.6117 8.08469V8.7802C13.6117 9.12538 13.3319 9.4052 12.9867 9.4052H8.8798C8.58952 9.4052 8.38467 9.68974 8.47676 9.96503L9.31088 12.4585C9.4463 12.8633 9.14504 13.2817 8.71816 13.2817H8.28819L5.54343 9.96114V9.68114V2.71872V2.71828ZM2.6377 9.68114H4.79343V2.71872H2.6377C2.49962 2.71872 2.3877 2.83065 2.3877 2.96872V9.43114C2.3877 9.56921 2.49962 9.68114 2.6377 9.68114Z" fill="#9393A4"/>
</g>
<defs>
<clipPath id="clip0_467_1627">
<rect width="16" height="16" fill="white"/>
</clipPath>
</defs>
</svg>
